# xmcd
#
# Track frame offsets:
#	187
#	15177
#	35615
#	51502
#	63282
#	74047
#	94110
#	108062
#	120272
#	136265
#
# Disc length: 2049 seconds
# Revision: 6
# Processed by: cddbd v1.5.2PL0 Copyright (c) Steve Scherf et al.
# Submitted via: dBpowerAMP V12.0
#
DISCID=7f07ff0a
DTITLE=Lacy J. Dalton - Chains On The Wind
DYEAR=1992
DGENRE=Country
TTITLE0=Heartache In Disguise
TTITLE1=Chains On The Wind
TTITLE2=Rocks From A Rolling Stone
TTITLE3=Love Hurts
TTITLE4=Bye Bye Love
TTITLE5=Stay With Me
TTITLE6=Here Today Here Tomorrow
TTITLE7=Never Gonna Lose My Love
TTITLE8=Lay A Little Love On Me
TTITLE9=Like The Answer To A Prayer
EXTD=
EXTT0=
EXTT1=
EXTT2=
EXTT3=
EXTT4=
EXTT5=
EXTT6=
EXTT7=
EXTT8=
EXTT9=
PLAYORDER=
